<svg xmlns="http://www.w3.org/2000/svg" viewBox="0 0 400 400"><defs><style>.cls-1{fill:#121212;}.cls-2{fill:none;stroke:#296095;stroke-width:38px;}.cls-2,.cls-4{stroke-miterlimit:10;}.cls-3{fill:#296095;}.cls-4{fill:#fff;stroke:#000;}</style></defs><title>icon</title><g id="Layer_1" data-name="Layer 1"><g id="BG"><rect class="cls-1" x="0.5" y="0.5" width="399" height="399"/><path d="M399,1V399H1V1H399m1-1H0V400H400V0Z"/></g></g><g id="Layer_2" data-name="Layer 2"><path id="ArrowBase" class="cls-2" d="M296.84,167a99.5,99.5,0,1,1-99.5-99.5"/><polygon id="ArrowHead" class="cls-3" points="250 67.54 196 17.08 196 118 250 67.54"/><path class="cls-4" d="M57.79,363.79l-3.94,19.94H39.64L58,304.49H76.41L95,383.73H80.07l-3.95-19.94ZM73.6,351.47c-3-15.16-5.32-26.25-6.57-33.81h-.34c-1,7.29-3.47,19.2-6.39,33.81Z"/><path class="cls-4" d="M144.67,304.49V359c0,6.49,1.62,14.19,10.34,14.19,8.44,0,10.25-6.49,10.25-14.1V304.49h14.21v54.83c0,14.22-5.55,25.79-24.7,25.79-18.83,0-24.32-10.88-24.32-25.8V304.49Z"/><path class="cls-4" d="M232.75,316.91H215.82V304.49h48.07v12.42H247v66.82H232.75Z"/><path class="cls-4" d="M347.93,343.5c0,29-7.88,41.59-26.14,41.59-17.07,0-25.38-12.43-25.38-41.75,0-28.59,9.68-40.11,26-40.11C339.7,303.23,347.93,316,347.93,343.5Zm-37-.29c0,18.8,2.85,30,11.16,30,8.76,0,11.26-10.36,11.26-29.95,0-18.42-2.66-28-11.27-28S311,325.55,311,343.21Z"/></g></svg>